<?xml version="1.0" encoding="utf-8"?>
<svg version="1.1" xmlns="http://www.w3.org/2000/svg" xmlns:xlink="http://www.w3.org/1999/xlink" x="0px" y="0px"
	 viewBox="0 0 1417.32 1417.32" xml:space="preserve">
<rect width="1417.32" height="1417.32" fill="#E6E7DA"/>
<g>
	<path d="M979.24,1234.11c27.72-49.09,54.11-94.82,79.06-141.32c3.09-5.75,0.8-16.94-2.87-23.39
		c-45.29-79.45-91.32-158.48-137.12-237.64c-3.7-6.4-7.1-12.96-12.88-23.55c12.59,0,22.33,0,32.06,0c41.34,0,82.7,0.57,124.02-0.31
		c13.4-0.28,20.78,4.27,27.16,15.84c20.52,37.2,42.15,73.79,65.2,113.82c24.93-43.04,46.93-83.94,71.91-122.93
		c12.37-19.31,11.05-33.24-0.27-52.58c-86.93-148.49-172.72-297.65-258.33-446.91c-6.91-12.04-14.07-17.19-28.35-16.92
		c-49.43,0.93-98.9,0.36-153.17,0.36c69.69,121.06,137.83,239.45,207.93,361.22c-12.01,0-19.86,0-27.7,0
		c-139.62,0-279.24,0.32-418.86-0.41c-15.96-0.08-24.13,5.08-31.33,18.8c-22.29,42.42-45.98,84.11-70.57,128.7
		c8.9,0.52,15.25,1.21,21.6,1.22c82.01,0.1,164.02,0.47,246.02-0.23c14.71-0.13,22.85,4.23,30.27,17.23
		c74.54,130.62,149.79,260.82,224.89,391.12C970.89,1221.38,974.26,1226.26,979.24,1234.11z"/>
	<path d="M544.1,480.49c21.97,37.89,41.35,72,61.62,105.57c3.28,5.44,10.48,11.98,15.97,12.08c52.73,0.91,105.48,0.54,162.33,0.54
		c-80.24-139.04-159.16-275.8-239.77-415.47c-19.65,33.9-37.92,65.33-56.1,96.81c-99.51,172.38-198.87,344.84-298.76,517
		c-7.09,12.22-8.44,22.67-4.29,36.08c16.59,53.65,32.11,107.64,48.05,161.5c1.08,3.64,2.34,7.23,5.04,15.53
		C341.07,832.02,441.68,657.83,544.1,480.49z"/>
</g>
</svg>
